# xmcd CD database file
#
# Track frame offsets:
#	150
#	41660
#	80604
#	108874
#	144477
#	179022
#	212008
#	238565
#	273601
#
# Disc length: 3961 seconds
#
# Revision: 8
# Processed by: cddbd v1.5.2PL0 Copyright (c) Steve Scherf et al.
# Submitted via: CDex 1.70beta3
#
DISCID=800f7709
DTITLE=上原ひろみ - Voice
DYEAR=2011
DGENRE=Jazz
TTITLE0=Voice
TTITLE1=Flashback
TTITLE2=Now or Never
TTITLE3=Temptation
TTITLE4=Labyrinth
TTITLE5=Desire
TTITLE6=Haze
TTITLE7=Delusion
TTITLE8=Beethovens Piano Sonata No8 Pathetique
EXTD=YEAR: 2011
EXTT0=
EXTT1=
EXTT2=
EXTT3=
EXTT4=
EXTT5=
EXTT6=
EXTT7=
EXTT8=
PLAYORDER=
